<mxfile host="app.diagrams.net" modified="2022-08-11T17:00:16.574Z" agent="5.0 (Windows NT 10.0; Win64; x64) AppleWebKit/537.36 (KHTML, like Gecko) Chrome/104.0.0.0 Safari/537.36" etag="3yAfiZh_64WoecYvCA8P" version="20.2.3" type="github">
  <diagram id="C5RBs43oDa-KdzZeNtuy" name="Page-1">
    <mxGraphModel dx="868" dy="442" grid="1" gridSize="10" guides="1" tooltips="1" connect="1" arrows="1" fold="1" page="1" pageScale="1" pageWidth="827" pageHeight="1169" math="0" shadow="0">
      <root>
        <mxCell id="WIyWlLk6GJQsqaUBKTNV-0" />
        <mxCell id="WIyWlLk6GJQsqaUBKTNV-1" parent="WIyWlLk6GJQsqaUBKTNV-0" />
        <mxCell id="PKuiSPMeylYWRrvtgPwn-7" style="edgeStyle=orthogonalEdgeStyle;rounded=0;orthogonalLoop=1;jettySize=auto;html=1;" edge="1" parent="WIyWlLk6GJQsqaUBKTNV-1" source="PKuiSPMeylYWRrvtgPwn-1" target="PKuiSPMeylYWRrvtgPwn-4">
          <mxGeometry relative="1" as="geometry" />
        </mxCell>
        <mxCell id="PKuiSPMeylYWRrvtgPwn-1" value="INICIO" style="rounded=1;whiteSpace=wrap;html=1;arcSize=50;" vertex="1" parent="WIyWlLk6GJQsqaUBKTNV-1">
          <mxGeometry x="330" y="80" width="120" height="50" as="geometry" />
        </mxCell>
        <mxCell id="PKuiSPMeylYWRrvtgPwn-2" value="FIN" style="rounded=1;whiteSpace=wrap;html=1;arcSize=50;" vertex="1" parent="WIyWlLk6GJQsqaUBKTNV-1">
          <mxGeometry x="330" y="660" width="120" height="50" as="geometry" />
        </mxCell>
        <mxCell id="PKuiSPMeylYWRrvtgPwn-12" style="edgeStyle=orthogonalEdgeStyle;rounded=0;orthogonalLoop=1;jettySize=auto;html=1;" edge="1" parent="WIyWlLk6GJQsqaUBKTNV-1" source="PKuiSPMeylYWRrvtgPwn-3" target="PKuiSPMeylYWRrvtgPwn-11">
          <mxGeometry relative="1" as="geometry" />
        </mxCell>
        <mxCell id="PKuiSPMeylYWRrvtgPwn-3" value="n" style="shape=parallelogram;perimeter=parallelogramPerimeter;whiteSpace=wrap;html=1;fixedSize=1;" vertex="1" parent="WIyWlLk6GJQsqaUBKTNV-1">
          <mxGeometry x="330" y="390" width="120" height="60" as="geometry" />
        </mxCell>
        <mxCell id="PKuiSPMeylYWRrvtgPwn-9" style="edgeStyle=orthogonalEdgeStyle;rounded=0;orthogonalLoop=1;jettySize=auto;html=1;" edge="1" parent="WIyWlLk6GJQsqaUBKTNV-1" source="PKuiSPMeylYWRrvtgPwn-4" target="PKuiSPMeylYWRrvtgPwn-8">
          <mxGeometry relative="1" as="geometry" />
        </mxCell>
        <mxCell id="PKuiSPMeylYWRrvtgPwn-4" value="int n;&lt;br&gt;int a;&lt;br&gt;int b;&lt;br&gt;int c;" style="rounded=0;whiteSpace=wrap;html=1;" vertex="1" parent="WIyWlLk6GJQsqaUBKTNV-1">
          <mxGeometry x="330" y="180" width="120" height="60" as="geometry" />
        </mxCell>
        <mxCell id="PKuiSPMeylYWRrvtgPwn-10" style="edgeStyle=orthogonalEdgeStyle;rounded=0;orthogonalLoop=1;jettySize=auto;html=1;" edge="1" parent="WIyWlLk6GJQsqaUBKTNV-1" source="PKuiSPMeylYWRrvtgPwn-8" target="PKuiSPMeylYWRrvtgPwn-3">
          <mxGeometry relative="1" as="geometry" />
        </mxCell>
        <mxCell id="PKuiSPMeylYWRrvtgPwn-8" value="&quot;Ingrese el Numero&quot;" style="shape=document;whiteSpace=wrap;html=1;boundedLbl=1;" vertex="1" parent="WIyWlLk6GJQsqaUBKTNV-1">
          <mxGeometry x="330" y="280" width="120" height="80" as="geometry" />
        </mxCell>
        <mxCell id="PKuiSPMeylYWRrvtgPwn-11" value="a = 0;&lt;br&gt;b = 0;&lt;br&gt;c = 0;" style="rounded=0;whiteSpace=wrap;html=1;" vertex="1" parent="WIyWlLk6GJQsqaUBKTNV-1">
          <mxGeometry x="330" y="490" width="120" height="60" as="geometry" />
        </mxCell>
      </root>
    </mxGraphModel>
  </diagram>
</mxfile>
